<svg width="57" height="69" viewBox="0 0 57 69" fill="none" xmlns="http://www.w3.org/2000/svg">
<path d="M17.0184 45.9211L16.8283 45.6328L16.6471 45.7522L16.6761 45.9673L17.0184 45.9211ZM15.3664 67.7007L15.1114 67.9337L15.2141 68.0461H15.3664V67.7007ZM26.4479 67.7007V68.0461C26.6363 68.0461 26.79 67.8951 26.7933 67.7067L26.4479 67.7007ZM26.9422 39.377L27.2876 39.383L27.299 38.7279L26.7521 39.0886L26.9422 39.377ZM17.0184 45.9211L16.6761 45.9673C17.913 55.1347 17.2088 60.2122 16.3576 63.1402C15.9315 64.6058 15.4677 65.5391 15.1695 66.2109C15.0247 66.537 14.9011 66.8386 14.8645 67.1096C14.8235 67.4124 14.8889 67.6903 15.1114 67.9337L15.3664 67.7007L15.6213 67.4676C15.5544 67.3944 15.5319 67.3292 15.549 67.2022C15.5705 67.0435 15.6511 66.8286 15.8009 66.4912C16.0918 65.8359 16.5789 64.8538 17.021 63.3331C17.906 60.2885 18.6067 55.1095 17.3608 45.8749L17.0184 45.9211ZM15.3664 67.7007V68.0461H26.4479V67.7007V67.3553H15.3664V67.7007ZM26.4479 67.7007L26.7933 67.7067L27.2876 39.383L26.9422 39.377L26.5969 39.3709L26.1026 67.6946L26.4479 67.7007ZM26.9422 39.377L26.7521 39.0886L16.8283 45.6328L17.0184 45.9211L17.2086 46.2095L27.1324 39.6653L26.9422 39.377Z" fill="black"/>
<path d="M39.7601 65.8389C39.8787 64.39 38.8435 51.0403 39.7602 44.8996L31.0513 40.7598L30.3964 67.6157L41.4276 67.7018C41.6805 67.0809 39.6696 66.946 39.7601 65.8389Z" stroke="black" stroke-width="0.690828" stroke-linejoin="round"/>
<ellipse cx="16.4677" cy="35.8563" rx="16.4677" ry="17.2646" fill="#94B74B"/>
<ellipse cx="39.8408" cy="35.8563" rx="16.4677" ry="17.2646" fill="#94B74B"/>
<ellipse cx="16.4677" cy="17.2646" rx="16.4677" ry="17.2646" fill="#94B74B"/>
<ellipse cx="39.8408" cy="17.2646" rx="16.4677" ry="17.2646" fill="#94B74B"/>
<path d="M25.6121 27.1933C25.612 31.5488 32.6677 31.5491 32.6677 27.0587" stroke="black" stroke-width="1.38166" stroke-linecap="round"/>
<path d="M38.6867 18.6523C37.278 18.857 34.2005 19.6348 33.1602 21.1086C34.3522 21.0063 37.3213 21.17 38.3616 21.4156" stroke="black" stroke-width="0.690828" stroke-linecap="round" stroke-linejoin="round"/>
<circle cx="21.5136" cy="20.9843" r="1.85926" fill="black"/>
<path d="M7.70247 36.2854C6.78137 38.0124 6.05465 41.2341 6.74542 43.652C7.38192 45.8799 10.8111 49.9403 16.6831 48.3745C21.8643 46.9928 32.572 37.6667 38.7894 40.0846C43.8419 42.0494 37.4895 32.6095 25.6638 35.6757M25.6638 35.6757C22.937 36.3827 19.9192 37.7546 16.6831 40.0846C16.3377 40.0848 15.716 39.8088 15.9923 38.7033C14.9561 39.509 13.2981 40.3607 14.9561 37.3213C13.4593 38.2425 11.0184 39.325 13.229 36.2854C11.2717 36.9762 8.39327 37.7361 12.5382 35.2491C16.6831 32.7622 23.0157 34.4973 25.6638 35.6757ZM29.1179 42.157C30.7299 45.0354 34.7238 48.3745 43.3591 47.1061C49.8881 46.1471 51.9944 41.5795 52.3398 37.78" stroke="black" stroke-width="0.690828"/>
</svg>
