<svg width="192" height="54" viewBox="0 0 192 54" fill="none" xmlns="http://www.w3.org/2000/svg">
<path d="M103 6.09871C103 4.47662 104.457 3.24275 106.057 3.50942L130.493 7.5822C131.94 7.82329 133 9.07486 133 10.5414V40.375C133 41.8247 131.825 43 130.375 43H105.625C104.175 43 103 41.8247 103 40.375V6.09871Z" fill="#FFFDF8"/>
<path d="M103 25.2403L119.036 23.8586C124.395 23.3968 129 27.6223 129 33.0012V44.5C129 46.1569 127.657 47.5 126 47.5L103 25.2403Z" fill="#FFFDF8"/>
<path d="M107.588 9L118.573 11.2081C122.858 12.0695 125.941 15.8338 125.941 20.2046V47.6472L107.588 42.9815V9Z" fill="#74952F"/>
<circle cx="120.261" cy="28.4197" r="2.62185" fill="#FFFDF8"/>
<path d="M2.97222 41V16H10.25C12.0093 16 13.5093 16.3519 14.75 17.0556C16.0093 17.7407 16.9722 18.6667 17.6389 19.8333C18.3056 20.9815 18.6389 22.2407 18.6389 23.6111C18.6389 24.9259 18.3241 26.1204 17.6944 27.1944C17.0833 28.25 16.2222 29.1019 15.1111 29.75L22.1667 41H17.1389L10.9722 31H7.36111V41H2.97222ZM7.36111 27.1944H10.1667C11.1111 27.1944 11.8796 27.0185 12.4722 26.6667C13.0833 26.3148 13.537 25.8611 13.8333 25.3056C14.1296 24.75 14.2778 24.1852 14.2778 23.6111C14.2778 22.5926 13.8981 21.75 13.1389 21.0833C12.3796 20.4167 11.3889 20.0833 10.1667 20.0833H7.36111V27.1944ZM32.6599 41.5C31.0117 41.5 29.5025 41.1019 28.1321 40.3056C26.7803 39.5093 25.7062 38.4444 24.9099 37.1111C24.1136 35.7778 23.7155 34.2963 23.7155 32.6667C23.7155 31.037 24.1136 29.5556 24.9099 28.2222C25.7062 26.8889 26.7803 25.8241 28.1321 25.0278C29.5025 24.2315 31.0025 23.8333 32.6321 23.8333C34.2988 23.8333 35.808 24.2315 37.1599 25.0278C38.5117 25.8241 39.5858 26.8889 40.3821 28.2222C41.1969 29.537 41.6043 31.0185 41.6043 32.6667C41.6043 34.2778 41.1969 35.7593 40.3821 37.1111C39.5858 38.4444 38.5117 39.5093 37.1599 40.3056C35.808 41.1019 34.308 41.5 32.6599 41.5ZM32.6321 37.5556C33.5395 37.5556 34.3543 37.3333 35.0766 36.8889C35.7988 36.4444 36.3729 35.8519 36.7988 35.1111C37.2247 34.3704 37.4377 33.5556 37.4377 32.6667C37.4377 31.7593 37.2247 30.9444 36.7988 30.2222C36.3729 29.4815 35.7988 28.8889 35.0766 28.4444C34.3543 28 33.5395 27.7778 32.6321 27.7778C31.7432 27.7778 30.9377 28 30.2155 28.4444C29.4932 28.8889 28.9192 29.4815 28.4932 30.2222C28.0673 30.9444 27.8543 31.7593 27.8543 32.6667C27.8543 33.5556 28.0673 34.3704 28.4932 35.1111C28.9192 35.8519 29.4932 36.4444 30.2155 36.8889C30.9377 37.3333 31.7432 37.5556 32.6321 37.5556ZM54.4161 41.5C52.768 41.5 51.2587 41.1019 49.8884 40.3056C48.5365 39.5093 47.4624 38.4444 46.6661 37.1111C45.8699 35.7778 45.4717 34.2963 45.4717 32.6667C45.4717 31.037 45.8699 29.5556 46.6661 28.2222C47.4624 26.8889 48.5365 25.8241 49.8884 25.0278C51.2587 24.2315 52.7587 23.8333 54.3884 23.8333C56.055 23.8333 57.5643 24.2315 58.9161 25.0278C60.268 25.8241 61.3421 26.8889 62.1384 28.2222C62.9532 29.537 63.3606 31.0185 63.3606 32.6667C63.3606 34.2778 62.9532 35.7593 62.1384 37.1111C61.3421 38.4444 60.268 39.5093 58.9161 40.3056C57.5643 41.1019 56.0643 41.5 54.4161 41.5ZM54.3884 37.5556C55.2958 37.5556 56.1106 37.3333 56.8328 36.8889C57.555 36.4444 58.1291 35.8519 58.555 35.1111C58.981 34.3704 59.1939 33.5556 59.1939 32.6667C59.1939 31.7593 58.981 30.9444 58.555 30.2222C58.1291 29.4815 57.555 28.8889 56.8328 28.4444C56.1106 28 55.2958 27.7778 54.3884 27.7778C53.4995 27.7778 52.6939 28 51.9717 28.4444C51.2495 28.8889 50.6754 29.4815 50.2495 30.2222C49.8236 30.9444 49.6106 31.7593 49.6106 32.6667C49.6106 33.5556 49.8236 34.3704 50.2495 35.1111C50.6754 35.8519 51.2495 36.4444 51.9717 36.8889C52.6939 37.3333 53.4995 37.5556 54.3884 37.5556ZM68.1446 41V24.3333H72.0613V26.3056C72.6724 25.4907 73.4224 24.8796 74.3113 24.4722C75.2002 24.0463 76.1354 23.8333 77.1168 23.8333C78.1354 23.8333 79.0891 24.0556 79.978 24.5C80.8668 24.9259 81.6076 25.5556 82.2002 26.3889C82.8483 25.5556 83.6631 24.9259 84.6446 24.5C85.6261 24.0556 86.6817 23.8333 87.8113 23.8333C89.015 23.8333 90.1354 24.1111 91.1724 24.6667C92.2094 25.2222 93.052 26.0278 93.7002 27.0833C94.3483 28.1389 94.6724 29.4074 94.6724 30.8889V41H90.2835V31.5C90.2835 30.4444 89.978 29.5648 89.3668 28.8611C88.7743 28.1574 87.9687 27.8056 86.9502 27.8056C86.3761 27.8056 85.8298 27.9352 85.3113 28.1944C84.7928 28.4537 84.3761 28.8519 84.0613 29.3889C83.7465 29.9259 83.5891 30.6111 83.5891 31.4444V41H79.2002V31.5C79.2002 30.7963 79.0613 30.1667 78.7835 29.6111C78.5057 29.037 78.1168 28.5926 77.6168 28.2778C77.1168 27.9444 76.5335 27.7778 75.8668 27.7778C75.3113 27.7778 74.7743 27.9167 74.2557 28.1944C73.7372 28.4537 73.3113 28.8519 72.978 29.3889C72.6631 29.9259 72.5057 30.6111 72.5057 31.4444V41H68.1446Z" fill="#FFFDF8"/>
<path d="M148.083 40.5C146.435 40.5 144.926 40.1019 143.556 39.3056C142.204 38.5093 141.13 37.4444 140.333 36.1111C139.537 34.7778 139.139 33.2963 139.139 31.6667C139.139 30.037 139.537 28.5556 140.333 27.2222C141.13 25.8889 142.204 24.8241 143.556 24.0278C144.926 23.2315 146.426 22.8333 148.056 22.8333C149.722 22.8333 151.231 23.2315 152.583 24.0278C153.935 24.8241 155.009 25.8889 155.806 27.2222C156.62 28.537 157.028 30.0185 157.028 31.6667C157.028 33.2778 156.62 34.7593 155.806 36.1111C155.009 37.4444 153.935 38.5093 152.583 39.3056C151.231 40.1019 149.731 40.5 148.083 40.5ZM148.056 36.5556C148.963 36.5556 149.778 36.3333 150.5 35.8889C151.222 35.4444 151.796 34.8519 152.222 34.1111C152.648 33.3704 152.861 32.5556 152.861 31.6667C152.861 30.7593 152.648 29.9444 152.222 29.2222C151.796 28.4815 151.222 27.8889 150.5 27.4444C149.778 27 148.963 26.7778 148.056 26.7778C147.167 26.7778 146.361 27 145.639 27.4444C144.917 27.8889 144.343 28.4815 143.917 29.2222C143.491 29.9444 143.278 30.7593 143.278 31.6667C143.278 32.5556 143.491 33.3704 143.917 34.1111C144.343 34.8519 144.917 35.4444 145.639 35.8889C146.361 36.3333 147.167 36.5556 148.056 36.5556ZM162.936 40V26.8333H159.658V23.3333H163.019V17.7778H167.214V23.3333H170.714V26.8333H167.297V40H162.936ZM182.716 40.5C180.882 40.5 179.253 40.1111 177.827 39.3333C176.419 38.5556 175.317 37.4907 174.521 36.1389C173.743 34.7685 173.355 33.2222 173.355 31.5C173.355 29.8519 173.734 28.3796 174.493 27.0833C175.271 25.7685 176.317 24.7315 177.632 23.9722C178.947 23.213 180.401 22.8333 181.993 22.8333C183.623 22.8333 185.077 23.213 186.355 23.9722C187.651 24.713 188.679 25.7222 189.438 27C190.197 28.2778 190.577 29.7315 190.577 31.3611V32.9444H180.216C179.753 32.9444 179.299 32.9167 178.855 32.8611C178.41 32.8056 177.966 32.7407 177.521 32.6667C177.743 33.8704 178.327 34.8611 179.271 35.6389C180.216 36.4167 181.401 36.8056 182.827 36.8056C183.882 36.8056 184.836 36.5833 185.688 36.1389C186.54 35.6944 187.243 35.1389 187.799 34.4722L188.799 38.5556C187.966 39.2037 187.03 39.6852 185.993 40C184.956 40.3333 183.864 40.5 182.716 40.5ZM177.41 29.9722C178.355 29.787 179.29 29.6944 180.216 29.6944H183.799C184.299 29.6944 184.771 29.713 185.216 29.75C185.66 29.787 186.086 29.8426 186.493 29.9167C186.216 28.8426 185.669 27.9815 184.855 27.3333C184.058 26.6852 183.095 26.3611 181.966 26.3611C180.855 26.3611 179.892 26.6944 179.077 27.3611C178.262 28.0278 177.706 28.8981 177.41 29.9722Z" fill="#FFFDF8"/>
<path d="M51 13.7883C51 12.2484 52.2484 11 53.7883 11C55.3283 11 56.5767 12.2484 56.5767 13.7883V18.0294C56.5767 18.5471 56.1571 18.9667 55.6394 18.9667H51.9373C51.4196 18.9667 51 18.5471 51 18.0294V13.7883Z" fill="#F9E792"/>
<path d="M146.221 10.5138L149.768 10.8136L151.281 14.0348L149.248 16.9562L145.702 16.6564L144.188 13.4352L146.221 10.5138Z" fill="#E4C341"/>
<circle cx="8.6514" cy="4.6514" r="3.6514" fill="#94B74B"/>
<rect x="77" y="10" width="6.97085" height="7.3028" rx="3.48543" fill="#94B74B"/>
<path d="M162 5.78834C162 4.24838 163.248 3 164.788 3C166.328 3 167.577 4.24838 167.577 5.78834V10.0294C167.577 10.5471 167.157 10.9667 166.639 10.9667H162.937C162.42 10.9667 162 10.5471 162 10.0294V5.78834Z" fill="#F9E792"/>
<rect x="176" y="9" width="6.97085" height="7.3028" rx="3.48543" fill="#94B74B"/>
<path d="M30.0113 14.9833C31.0335 13.213 33.5888 13.213 34.6109 14.9833C35.633 16.7537 34.3554 18.9667 32.3111 18.9667C30.2669 18.9667 28.9892 16.7537 30.0113 14.9833Z" fill="#E4C341"/>
</svg>
